<?xml version="1.0" encoding="UTF-8" standalone="no"?>
<!DOCTYPE svg PUBLIC "-//W3C//DTD SVG 1.1//EN" "http://www.w3.org/Graphics/SVG/1.1/DTD/svg11.dtd">
<svg version="1.1" xmlns="http://www.w3.org/2000/svg" xmlns:xlink="http://www.w3.org/1999/xlink" preserveAspectRatio="xMidYMid meet" viewBox="0 0 200 200" width="200" height="200"><defs><path d="M159.1 12.5C174.78 12.5 187.5 25.21 187.5 40.9C187.5 70.22 187.5 129.78 187.5 159.1C187.5 174.78 174.78 187.5 159.1 187.5C129.78 187.5 70.22 187.5 40.9 187.5C25.21 187.5 12.5 174.78 12.5 159.1C12.5 129.78 12.5 70.22 12.5 40.9C12.5 25.21 25.21 12.5 40.9 12.5C70.22 12.5 129.78 12.5 159.1 12.5Z" id="cIRaqGiHA"></path><path d="M53.5 161.5C53.5 169.78 46.78 176.5 38.5 176.5C30.22 176.5 23.5 169.78 23.5 161.5C23.5 153.22 30.22 146.5 38.5 146.5C46.78 146.5 53.5 153.22 53.5 161.5Z" id="f3N7HIFtYM"></path><path d="M94.5 161.5C94.5 169.78 87.78 176.5 79.5 176.5C71.22 176.5 64.5 169.78 64.5 161.5C64.5 153.22 71.22 146.5 79.5 146.5C87.78 146.5 94.5 153.22 94.5 161.5Z" id="a2mphBgMvo"></path><path d="M135.5 161.5C135.5 169.78 128.78 176.5 120.5 176.5C112.22 176.5 105.5 169.78 105.5 161.5C105.5 153.22 112.22 146.5 120.5 146.5C128.78 146.5 135.5 153.22 135.5 161.5Z" id="bw9JugJgt"></path><path d="M176.5 161.5C176.5 169.78 169.77 176.5 161.5 176.5C153.22 176.5 146.5 169.78 146.5 161.5C146.5 153.22 153.22 146.5 161.5 146.5C169.77 146.5 176.5 153.22 176.5 161.5Z" id="ayuRpjxUk"></path><path d="M53.5 120.5C53.5 128.78 46.78 135.5 38.5 135.5C30.22 135.5 23.5 128.78 23.5 120.5C23.5 112.22 30.22 105.5 38.5 105.5C46.78 105.5 53.5 112.22 53.5 120.5Z" id="bqAjDxYup"></path><path d="M94.5 120.5C94.5 128.78 87.78 135.5 79.5 135.5C71.22 135.5 64.5 128.78 64.5 120.5C64.5 112.22 71.22 105.5 79.5 105.5C87.78 105.5 94.5 112.22 94.5 120.5Z" id="a2u8UotWmt"></path><path d="M135.51 120.5C135.51 128.78 128.78 135.5 120.51 135.5C112.23 135.5 105.51 128.78 105.51 120.5C105.51 112.22 112.23 105.5 120.51 105.5C128.78 105.5 135.51 112.22 135.51 120.5Z" id="aoHrEtvdC"></path><path d="M176.5 120.5C176.5 128.78 169.78 135.5 161.5 135.5C153.22 135.5 146.5 128.78 146.5 120.5C146.5 112.22 153.22 105.5 161.5 105.5C169.78 105.5 176.5 112.22 176.5 120.5Z" id="c1luxcKBUu"></path><path d="M53.5 79.5C53.5 87.77 46.78 94.5 38.5 94.5C30.22 94.5 23.5 87.77 23.5 79.5C23.5 71.22 30.22 64.5 38.5 64.5C46.78 64.5 53.5 71.22 53.5 79.5Z" id="b3pgySV30q"></path><path d="M94.5 79.5C94.5 87.77 87.78 94.5 79.5 94.5C71.22 94.5 64.5 87.77 64.5 79.5C64.5 71.22 71.22 64.5 79.5 64.5C87.78 64.5 94.5 71.22 94.5 79.5Z" id="a2qdqAPZZ"></path><path d="M135.51 79.5C135.51 87.77 128.78 94.5 120.51 94.5C112.23 94.5 105.51 87.77 105.51 79.5C105.51 71.22 112.23 64.5 120.51 64.5C128.78 64.5 135.51 71.22 135.51 79.5Z" id="b3rpceLxG4"></path><path d="M176.5 79.5C176.5 87.77 169.78 94.5 161.5 94.5C153.22 94.5 146.5 87.77 146.5 79.5C146.5 71.22 153.22 64.5 161.5 64.5C169.78 64.5 176.5 71.22 176.5 79.5Z" id="d9JQvGcp"></path><path d="M53.5 38.5C53.5 46.78 46.78 53.5 38.5 53.5C30.23 53.5 23.5 46.78 23.5 38.5C23.5 30.22 30.23 23.5 38.5 23.5C46.78 23.5 53.5 30.22 53.5 38.5Z" id="b3rIOdlbmT"></path><path d="M94.5 38.5C94.5 46.78 87.78 53.5 79.5 53.5C71.23 53.5 64.5 46.78 64.5 38.5C64.5 30.22 71.23 23.5 79.5 23.5C87.78 23.5 94.5 30.22 94.5 38.5Z" id="b2qGwWQWvg"></path><path d="M135.51 38.5C135.51 46.78 128.79 53.5 120.51 53.5C112.23 53.5 105.51 46.78 105.51 38.5C105.51 30.22 112.23 23.5 120.51 23.5C128.79 23.5 135.51 30.22 135.51 38.5Z" id="b1Qm6l6p"></path><path d="M176.5 38.5C176.5 46.78 169.78 53.5 161.5 53.5C153.22 53.5 146.5 46.78 146.5 38.5C146.5 30.22 153.22 23.5 161.5 23.5C169.78 23.5 176.5 30.22 176.5 38.5Z" id="fKcno7xJ3"></path></defs><g><g><g><use xlink:href="#cIRaqGiHA" opacity="1" fill="#6495ed" fill-opacity="1"></use><g><use xlink:href="#cIRaqGiHA" opacity="1" fill-opacity="0" stroke="#88616a" stroke-width="0" stroke-opacity="1"></use></g></g><g><use xlink:href="#f3N7HIFtYM" opacity="1" fill="#eee8aa" fill-opacity="1"></use></g><g><use xlink:href="#a2mphBgMvo" opacity="1" fill="#db7093" fill-opacity="1"></use></g><g><use xlink:href="#bw9JugJgt" opacity="1" fill="#eee8aa" fill-opacity="1"></use></g><g><use xlink:href="#ayuRpjxUk" opacity="1" fill="#db7093" fill-opacity="1"></use></g><g><use xlink:href="#bqAjDxYup" opacity="1" fill="#db7093" fill-opacity="1"></use></g><g><use xlink:href="#a2u8UotWmt" opacity="1" fill="#eee8aa" fill-opacity="1"></use></g><g><use xlink:href="#aoHrEtvdC" opacity="1" fill="#db7093" fill-opacity="1"></use></g><g><use xlink:href="#c1luxcKBUu" opacity="1" fill="#eee8aa" fill-opacity="1"></use></g><g><use xlink:href="#b3pgySV30q" opacity="1" fill="#eee8aa" fill-opacity="1"></use></g><g><use xlink:href="#a2qdqAPZZ" opacity="1" fill="#db7093" fill-opacity="1"></use></g><g><use xlink:href="#b3rpceLxG4" opacity="1" fill="#eee8aa" fill-opacity="1"></use></g><g><use xlink:href="#d9JQvGcp" opacity="1" fill="#db7093" fill-opacity="1"></use></g><g><use xlink:href="#b3rIOdlbmT" opacity="1" fill="#db7093" fill-opacity="1"></use></g><g><use xlink:href="#b2qGwWQWvg" opacity="1" fill="#eee8aa" fill-opacity="1"></use></g><g><use xlink:href="#b1Qm6l6p" opacity="1" fill="#db7093" fill-opacity="1"></use></g><g><use xlink:href="#fKcno7xJ3" opacity="1" fill="#eee8aa" fill-opacity="1"></use></g></g></g></svg>