<?xml version="1.0" encoding="utf-8"?><svg version="1.1" id="Layer_1" xmlns="http://www.w3.org/2000/svg" xmlns:xlink="http://www.w3.org/1999/xlink" x="0px" y="0px" viewBox="0 0 122.88 91.26" style="enable-background:new 0 0 122.88 91.26" xml:space="preserve"><style type="text/css"><![CDATA[
	.st0{fill-rule:evenodd;clip-rule:evenodd;}
]]></style><g><path class="st0" d="M8.32,0h106.24c4.58,0,8.32,3.74,8.32,8.32v74.62c0,4.57-3.74,8.32-8.32,8.32H8.32C3.74,91.26,0,87.51,0,82.94 V8.32C0,3.74,3.74,0,8.32,0L8.32,0L8.32,0z M61.44,28.99c3.57,0,6.98,0.71,10.09,2c3.23,1.34,6.14,3.3,8.57,5.73l0,0 c2.43,2.43,4.39,5.34,5.73,8.57c1.29,3.11,2,6.52,2,10.09s-0.71,6.98-2,10.09c-1.34,3.23-3.3,6.14-5.73,8.57l0,0 c-2.43,2.43-5.34,4.39-8.57,5.73c-3.11,1.29-6.52,2-10.09,2c-3.57,0-6.98-0.71-10.09-2c-3.23-1.34-6.14-3.3-8.57-5.73l0,0 c-2.43-2.43-4.39-5.34-5.73-8.57c-1.29-3.12-2-6.52-2-10.09s0.71-6.98,2-10.09c1.34-3.23,3.3-6.14,5.73-8.57l0,0 c2.43-2.43,5.34-4.39,8.57-5.73C54.46,29.71,57.87,28.99,61.44,28.99L61.44,28.99z M52.63,53.42c-0.16,0.42-0.47,0.75-0.85,0.93 c-0.39,0.19-0.86,0.24-1.31,0.08l-0.06-0.02c-0.42-0.16-0.75-0.47-0.93-0.85c-0.19-0.39-0.23-0.86-0.08-1.31l0.02-0.06 c0.32-0.91,0.73-1.77,1.21-2.57c0.51-0.84,1.09-1.62,1.75-2.33c0.66-0.71,1.4-1.36,2.19-1.92c0.78-0.55,1.63-1.03,2.54-1.42v0 c0.43-0.19,0.9-0.18,1.31-0.02c0.41,0.16,0.76,0.48,0.95,0.92c0.19,0.43,0.18,0.9,0.02,1.31s-0.48,0.76-0.92,0.95 c-0.68,0.29-1.32,0.65-1.91,1.07l-0.05,0.03c-0.58,0.42-1.12,0.89-1.62,1.43c-0.5,0.54-0.94,1.13-1.32,1.75 c-0.38,0.63-0.69,1.29-0.93,1.99L52.63,53.42L52.63,53.42z M46.52,52.52L46.52,52.52c-0.13,0.42-0.41,0.76-0.77,0.97 c-0.38,0.22-0.84,0.3-1.29,0.19l-0.08-0.02c-0.43-0.13-0.77-0.41-0.99-0.77c-0.22-0.38-0.3-0.84-0.19-1.3l0-0.01 c0.36-1.41,0.89-2.75,1.57-4c0.69-1.28,1.53-2.46,2.5-3.52c0.97-1.06,2.07-2.01,3.27-2.81c1.19-0.79,2.48-1.45,3.85-1.94l0,0 c0.45-0.16,0.92-0.12,1.31,0.07c0.4,0.19,0.73,0.53,0.89,0.98c0.16,0.45,0.12,0.92-0.07,1.32c-0.19,0.4-0.53,0.73-0.98,0.89 l-0.05,0.02c-1.08,0.39-2.1,0.91-3.04,1.54v0c-0.98,0.65-1.87,1.41-2.64,2.26c-0.78,0.86-1.46,1.81-2.01,2.84 c-0.54,1.01-0.97,2.09-1.26,3.22L46.52,52.52L46.52,52.52z M61.44,49.48c0.8,0,1.56,0.16,2.26,0.45l0,0 c0.72,0.3,1.37,0.74,1.91,1.28c0.54,0.54,0.98,1.19,1.28,1.92l0.02,0.05c0.28,0.69,0.43,1.44,0.43,2.21c0,0.79-0.16,1.56-0.45,2.26 l0,0c-0.3,0.72-0.74,1.37-1.28,1.91c-0.54,0.54-1.19,0.98-1.92,1.29l-0.05,0.02c-0.69,0.28-1.43,0.43-2.21,0.43 c-0.79,0-1.56-0.16-2.26-0.45l0,0c-0.72-0.3-1.37-0.74-1.91-1.28c-0.54-0.54-0.98-1.19-1.28-1.92l-0.02-0.05 c-0.28-0.69-0.43-1.44-0.43-2.21c0-0.79,0.16-1.56,0.45-2.26l0,0c0.3-0.72,0.74-1.37,1.28-1.91l0,0c0.54-0.54,1.19-0.98,1.91-1.28 l0.05-0.02C59.91,49.64,60.66,49.48,61.44,49.48L61.44,49.48z M77,39.83c-2.03-2.03-4.46-3.67-7.14-4.78 c-2.59-1.07-5.43-1.66-8.42-1.66c-2.99,0-5.83,0.59-8.42,1.66c-2.69,1.11-5.11,2.75-7.14,4.78s-3.67,4.46-4.78,7.14 c-1.07,2.59-1.66,5.43-1.66,8.42s0.59,5.83,1.66,8.42c1.11,2.69,2.75,5.11,4.78,7.14c2.03,2.03,4.46,3.67,7.14,4.78 c2.59,1.07,5.43,1.66,8.42,1.66c2.99,0,5.83-0.59,8.42-1.66c2.69-1.11,5.11-2.75,7.14-4.78c2.03-2.03,3.67-4.46,4.78-7.14 c1.07-2.59,1.66-5.43,1.66-8.42s-0.59-5.83-1.66-8.42C80.67,44.29,79.04,41.86,77,39.83L77,39.83z M117.97,23.29H5.29v60.46 c0,0.64,0.25,1.2,0.67,1.63c0.42,0.42,0.99,0.67,1.63,0.67h108.04c0.64,0,1.2-0.25,1.63-0.67c0.43-0.43,0.67-0.99,0.67-1.63V23.29 H117.97L117.97,23.29L117.97,23.29z M106.64,9.35c2.27,0,4.11,1.84,4.11,4.11s-1.84,4.11-4.11,4.11s-4.11-1.84-4.11-4.11 C102.54,11.19,104.38,9.35,106.64,9.35L106.64,9.35L106.64,9.35z M78.8,9.35c2.27,0,4.11,1.84,4.11,4.11s-1.84,4.11-4.11,4.11 c-2.27,0-4.11-1.84-4.11-4.11S76.53,9.35,78.8,9.35L78.8,9.35L78.8,9.35z M92.72,9.35c2.27,0,4.11,1.84,4.11,4.11 s-1.84,4.11-4.11,4.11s-4.11-1.84-4.11-4.11S90.45,9.35,92.72,9.35L92.72,9.35L92.72,9.35z"/></g></svg>