<?xml version="1.0" encoding="UTF-8" standalone="no"?>
<!DOCTYPE svg PUBLIC "-//W3C//DTD SVG 1.1//EN" "http://www.w3.org/Graphics/SVG/1.1/DTD/svg11.dtd">
<svg version="1.1" xmlns="http://www.w3.org/2000/svg" xmlns:xlink="http://www.w3.org/1999/xlink" preserveAspectRatio="xMidYMid meet" viewBox="0 0 250 250" width="250" height="250"><defs><path d="M250 125C250 193.99 193.99 250 125 250C56.01 250 0 193.99 0 125C0 56.01 56.01 0 125 0C193.99 0 250 56.01 250 125Z" id="a8xqysnSJ"></path><path d="M201.98 112.5C207.79 112.5 212.5 117.21 212.5 123.02C212.5 125.92 212.5 124.08 212.5 126.98C212.5 132.79 207.79 137.5 201.98 137.5C169.08 137.5 80.92 137.5 48.02 137.5C42.21 137.5 37.5 132.79 37.5 126.98C37.5 124.08 37.5 125.92 37.5 123.02C37.5 117.21 42.21 112.5 48.02 112.5C80.92 112.5 169.08 112.5 201.98 112.5Z" id="c5ELLal8Py"></path><path d="M137.5 201.98C137.5 207.79 132.79 212.5 126.98 212.5C124.08 212.5 125.92 212.5 123.02 212.5C117.21 212.5 112.5 207.79 112.5 201.98C112.5 169.08 112.5 80.92 112.5 48.02C112.5 42.21 117.21 37.5 123.02 37.5C125.92 37.5 124.08 37.5 126.98 37.5C132.79 37.5 137.5 42.21 137.5 48.02C137.5 80.92 137.5 169.08 137.5 201.98Z" id="brQOEBd0"></path></defs><g><g><g><use xlink:href="#a8xqysnSJ" opacity="1" fill="#3772ff" fill-opacity="1"></use><g><use xlink:href="#a8xqysnSJ" opacity="1" fill-opacity="0" stroke="#b8a1e9" stroke-width="0" stroke-opacity="1"></use></g></g><g><use xlink:href="#c5ELLal8Py" opacity="1" fill="#fbfafa" fill-opacity="1"></use></g><g><use xlink:href="#brQOEBd0" opacity="1" fill="#fbfafa" fill-opacity="1"></use></g></g></g></svg>