<?xml version="1.0" encoding="UTF-8" standalone="no"?>
<!DOCTYPE svg PUBLIC "-//W3C//DTD SVG 1.1//EN" "http://www.w3.org/Graphics/SVG/1.1/DTD/svg11.dtd">
<svg version="1.1" xmlns="http://www.w3.org/2000/svg" xmlns:xlink="http://www.w3.org/1999/xlink" preserveAspectRatio="xMidYMid meet" viewBox="0 0 420 225" width="420" height="225"><defs><path d="M300 90C300 139.67 259.67 180 210 180C160.33 180 120 139.67 120 90C120 40.33 160.33 0 210 0C259.67 0 300 40.33 300 90Z" id="b3WeCBfMP"></path><path d="M270 165C270 198.11 243.11 225 210 225C176.89 225 150 198.11 150 165C150 131.89 176.89 105 210 105C243.11 105 270 131.89 270 165Z" id="a1FBWBS9pi"></path><path d="M150 165C150 198.11 123.11 225 90 225C56.89 225 30 198.11 30 165C30 131.89 56.89 105 90 105C123.11 105 150 131.89 150 165Z" id="a35jRnLGo"></path><path d="M390 165C390 198.11 363.11 225 330 225C296.89 225 270 198.11 270 165C270 131.89 296.89 105 330 105C363.11 105 390 131.89 390 165Z" id="avVd7Cc0n"></path><path d="M330 165C330 198.11 303.11 225 270 225C236.89 225 210 198.11 210 165C210 131.89 236.89 105 270 105C303.11 105 330 131.89 330 165Z" id="b89yZ0kCmE"></path><path d="M210 165C210 198.11 183.11 225 150 225C116.89 225 90 198.11 90 165C90 131.89 116.89 105 150 105C183.11 105 210 131.89 210 165Z" id="b3HAgX18oF"></path><path d="M420 112.5C420 145.61 393.11 172.5 360 172.5C326.89 172.5 300 145.61 300 112.5C300 79.39 326.89 52.5 360 52.5C393.11 52.5 420 79.39 420 112.5Z" id="d2vzhdZDtA"></path><path d="M120 112.5C120 145.61 93.11 172.5 60 172.5C26.89 172.5 0 145.61 0 112.5C0 79.39 26.89 52.5 60 52.5C93.11 52.5 120 79.39 120 112.5Z" id="ag8TLqqA0"></path><path d="M190.47 90C190.47 131.39 156.87 165 115.47 165C74.08 165 40.47 131.39 40.47 90C40.47 48.61 74.08 15 115.47 15C156.87 15 190.47 48.61 190.47 90Z" id="a1q47FyLg"></path><path d="M375 90C375 131.39 341.39 165 300 165C258.61 165 225 131.39 225 90C225 48.61 258.61 15 300 15C341.39 15 375 48.61 375 90Z" id="casilrDqBQ"></path></defs><g><g><g><g><use xlink:href="#b3WeCBfMP" opacity="1" fill="#709bff" fill-opacity="1"></use><g><use xlink:href="#b3WeCBfMP" opacity="1" fill-opacity="0" stroke="#91ac70" stroke-width="0" stroke-opacity="1"></use></g></g><g><use xlink:href="#a1FBWBS9pi" opacity="1" fill="#709bff" fill-opacity="1"></use><g><use xlink:href="#a1FBWBS9pi" opacity="1" fill-opacity="0" stroke="#91ac70" stroke-width="0" stroke-opacity="1"></use></g></g><g><use xlink:href="#a35jRnLGo" opacity="1" fill="#709bff" fill-opacity="1"></use><g><use xlink:href="#a35jRnLGo" opacity="1" fill-opacity="0" stroke="#91ac70" stroke-width="0" stroke-opacity="1"></use></g></g><g><use xlink:href="#avVd7Cc0n" opacity="1" fill="#709bff" fill-opacity="1"></use><g><use xlink:href="#avVd7Cc0n" opacity="1" fill-opacity="0" stroke="#91ac70" stroke-width="0" stroke-opacity="1"></use></g></g><g><use xlink:href="#b89yZ0kCmE" opacity="1" fill="#709bff" fill-opacity="1"></use><g><use xlink:href="#b89yZ0kCmE" opacity="1" fill-opacity="0" stroke="#91ac70" stroke-width="0" stroke-opacity="1"></use></g></g><g><use xlink:href="#b3HAgX18oF" opacity="1" fill="#709bff" fill-opacity="1"></use><g><use xlink:href="#b3HAgX18oF" opacity="1" fill-opacity="0" stroke="#91ac70" stroke-width="0" stroke-opacity="1"></use></g></g><g><use xlink:href="#d2vzhdZDtA" opacity="1" fill="#709bff" fill-opacity="1"></use><g><use xlink:href="#d2vzhdZDtA" opacity="1" fill-opacity="0" stroke="#91ac70" stroke-width="0" stroke-opacity="1"></use></g></g><g><use xlink:href="#ag8TLqqA0" opacity="1" fill="#709bff" fill-opacity="1"></use><g><use xlink:href="#ag8TLqqA0" opacity="1" fill-opacity="0" stroke="#91ac70" stroke-width="0" stroke-opacity="1"></use></g></g><g><use xlink:href="#a1q47FyLg" opacity="1" fill="#709bff" fill-opacity="1"></use><g><use xlink:href="#a1q47FyLg" opacity="1" fill-opacity="0" stroke="#91ac70" stroke-width="0" stroke-opacity="1"></use></g></g><g><use xlink:href="#casilrDqBQ" opacity="1" fill="#709bff" fill-opacity="1"></use><g><use xlink:href="#casilrDqBQ" opacity="1" fill-opacity="0" stroke="#91ac70" stroke-width="0" stroke-opacity="1"></use></g></g></g></g></g></svg>