<?xml version="1.0" encoding="UTF-8" standalone="no"?>
<!DOCTYPE svg PUBLIC "-//W3C//DTD SVG 1.1//EN" "http://www.w3.org/Graphics/SVG/1.1/DTD/svg11.dtd">
<svg version="1.1" xmlns="http://www.w3.org/2000/svg" xmlns:xlink="http://www.w3.org/1999/xlink" preserveAspectRatio="xMidYMid meet" viewBox="0 0 250 375" width="250" height="375"><defs><path d="M229.87 50C240.99 50 250 59.01 250 70.13C250 131.1 250 293.9 250 354.88C250 365.99 240.99 375 229.87 375C183.9 375 66.1 375 20.13 375C9.01 375 0 365.99 0 354.88C0 293.9 0 131.1 0 70.13C0 59.01 9.01 50 20.13 50C66.1 50 183.9 50 229.87 50Z" id="bqaUow8i8"></path><path d="M207.92 0C213.9 0 218.75 4.85 218.75 10.83C218.75 14.67 218.75 15.34 218.75 19.17C218.75 25.16 213.9 30 207.92 30C172.59 30 77.41 30 42.08 30C36.1 30 31.25 25.16 31.25 19.17C31.25 15.34 31.25 14.67 31.25 10.83C31.25 4.85 36.1 0 42.08 0C77.41 0 172.59 0 207.92 0Z" id="a4ASjq1GEO"></path><path d="M43.75 30L206.25 30L206.25 50L43.75 50L43.75 30Z" id="e3eeKArBLc"></path><path d="M224.96 150C231.89 150 237.5 155.62 237.5 162.54C237.5 202.53 237.5 309.97 237.5 349.96C237.5 356.89 231.89 362.5 224.96 362.5C182.47 362.5 67.53 362.5 25.04 362.5C18.11 362.5 12.5 356.89 12.5 349.96C12.5 309.97 12.5 202.53 12.5 162.54C12.5 155.62 18.11 150 25.04 150C67.53 150 182.47 150 224.96 150Z" id="a5h0bGYRkG"></path><path d="M0 150L250 150L250 225L0 225L0 150Z" id="cQr6A4jsn"></path><path d="M12.5 120L237.5 120L237.5 150L12.5 150L12.5 120Z" id="cUyM8KXJo"></path></defs><g><g><g><use xlink:href="#bqaUow8i8" opacity="1" fill="#709bff" fill-opacity="1"></use></g><g><use xlink:href="#a4ASjq1GEO" opacity="1" fill="#709bff" fill-opacity="1"></use><g><use xlink:href="#a4ASjq1GEO" opacity="1" fill-opacity="0" stroke="#45642f" stroke-width="0" stroke-opacity="1"></use></g></g><g><use xlink:href="#e3eeKArBLc" opacity="1" fill="#709bff" fill-opacity="1"></use><g><use xlink:href="#e3eeKArBLc" opacity="1" fill-opacity="0" stroke="#52b3a9" stroke-width="0" stroke-opacity="1"></use></g></g><g><use xlink:href="#a5h0bGYRkG" opacity="1" fill="#3772ff" fill-opacity="1"></use></g><g><use xlink:href="#cQr6A4jsn" opacity="1" fill="#ed6a5a" fill-opacity="1"></use></g><g><use xlink:href="#cUyM8KXJo" opacity="1" fill="#3772ff" fill-opacity="1"></use></g></g></g></svg>